:FULLY-SPECIFIED
:FORCE-ALL-JOINTS-BE-3DOF
:DEGREES
1019
root 1.15014 15.1618 32.4435 4.87541 -3.60255 363.662
lfemur 8.36461 0.627458 5.63048
ltibia -5.99532e-14 0 0
lfoot -30.092 -11.0074 0
ltoes -34.3103 0 0
rfemur -31.7334 -15.8227 -6.01202
rtibia 50.0899 0 0
rfoot -22.6344 4.21534 0
rtoes -43.2413 0 0
lowerback -1.28039 -0.207022 0.443579
upperback -0.571317 -0.273585 -5.83742
thorax 0.0998605 -0.147118 -6.30552
lowerneck -7.22354 1.00401 6.01142
upperneck 1.63066 0.668582 3.54202
head 1.74813 0.467965 0.120171
lclavicle -5.90036e-16 -2.15217e-14 0
lhumerus -58.7413 -46.4197 115.529
lradius 55.5874 0 0
lwrist 25.0888 0 0
lhand 37.0823 24.5927 0
lfingers 7.12502 0 0
lthumb 59.9356 38.4405 0
rclavicle -5.90036e-16 -2.15217e-14 0
rhumerus 2.99197 -23.9327 0.0231452
rradius 27.741 0 0
rwrist -10.7432 0 0
rhand -30.8741 -43.3239 0
rfingers 7.12502 0 0
rthumb -4.16165 -793.263 0
1020
root 1.15086 15.1616 32.4458 4.87621 -3.60576 363.663
lfemur 8.36772 0.630554 5.63068
ltibia -5.94114e-14 0 0
lfoot -30.092 -11.0099 0
ltoes -34.3107 0 0
rfemur -31.7377 -15.8263 -6.01189
rtibia 50.095 0 0
rfoot -22.6308 4.23243 0
rtoes -43.2237 0 0
lowerback -1.28306 -0.206475 0.442825
upperback -0.571455 -0.27278 -5.83944
thorax 0.101297 -0.146696 -6.30725
lowerneck -7.22133 1.00405 6.01447
upperneck 1.63143 0.668494 3.54147
head 1.74801 0.467944 0.119468
lclavicle -3.5226e-16 -2.08929e-14 0
lhumerus -58.7379 -46.4155 115.524
lradius 55.5857 0 0
lwrist 25.0889 0 0
lhand 37.0856 24.5962 0
lfingers 7.12502 0 0
lthumb 59.9385 38.4409 0
rclavicle -3.5226e-16 -2.08929e-14 0
rhumerus 2.99529 -23.9373 0.022389
rradius 27.7391 0 0
rwrist -10.7365 0 0
rhand -30.874 -43.3248 0
rfingers 7.12502 0 0
rthumb -4.16156 -793.264 0
1021
root 1.15159 15.1613 32.4482 4.87666 -3.60765 363.662
lfemur 8.37328 0.63236 5.63204
ltibia -5.8423e-14 0 0
lfoot -30.0929 -11.013 0
ltoes -34.3116 0 0
rfemur -31.7395 -15.8317 -6.01243
rtibia 50.1015 0 0
rfoot -22.622 4.2616 0
rtoes -43.19 0 0
lowerback -1.28875 -0.204708 0.438441
upperback -0.571014 -0.270158 -5.84333
thorax 0.105233 -0.145309 -6.30885
lowerneck -7.21794 1.00278 6.02172
upperneck 1.63186 0.666391 3.54146
head 1.74756 0.466941 0.118149
lclavicle 6.09277e-18 -1.97138e-14 0
lhumerus -58.7336 -46.4136 115.516
lradius 55.5852 0 0
lwrist 25.091 0 0
lhand 37.0916 24.6048 0
lfingers 7.12502 0 0
lthumb 59.9436 38.4441 0
rclavicle 6.09277e-18 -1.97138e-14 0
rhumerus 2.99539 -23.941 0.0240317
rradius 27.7347 0 0
rwrist -10.7216 0 0
rhand -30.8713 -43.3187 0
rfingers 7.12502 0 0
rthumb -4.15888 -793.257 0
1022
root 1.15231 15.161 32.4506 4.87652 -3.60748 363.659
lfemur 8.38159 0.632113 5.63498
ltibia -5.69349e-14 0 0
lfoot -30.0952 -11.0168 0
ltoes -34.3133 0 0
rfemur -31.7376 -15.8394 -6.01367
rtibia 50.1092 0 0
rfoot -22.6072 4.30485 0
rtoes -43.1376 0 0
lowerback -1.29797 -0.201409 0.42958
upperback -0.569814 -0.265261 -5.84943
thorax 0.112196 -0.142715 -6.31021
lowerneck -7.21333 0.999854 6.0341
upperneck 1.63205 0.661728 3.54218
head 1.7468 0.464697 0.116103
lclavicle 5.1207e-16 -1.78868e-14 0
lhumerus -58.7285 -46.4152 115.506
lradius 55.5865 0 0
lwrist 25.0956 0 0
lhand 37.1008 24.6196 0
lfingers 7.12502 0 0
lthumb 59.9514 38.4507 0
rclavicle 5.1207e-16 -1.78868e-14 0
rhumerus 2.99124 -23.943 0.0286707
rradius 27.7273 0 0
rwrist -10.6968 0 0
rhand -30.865 -43.3036 0
rfingers 7.12502 0 0
rthumb -4.15283 -793.243 0
1023
root 1.15304 15.1607 32.453 4.87553 -3.60448 363.653
lfemur 8.39298 0.62905 5.63995
ltibia -5.48941e-14 0 0
lfoot -30.0989 -11.021 0
ltoes -34.316 0 0
rfemur -31.7311 -15.8497 -6.01566
rtibia 50.1182 0 0
rfoot -22.5851 4.36418 0
rtoes -43.0639 0 0
lowerback -1.31124 -0.196263 0.415398
upperback -0.567671 -0.25763 -5.85811
thorax 0.122712 -0.138671 -6.31123
lowerneck -7.20746 0.994939 6.05252
upperneck 1.63208 0.653958 3.54384
head 1.74576 0.460955 0.113218
lclavicle 1.19272e-15 -1.53138e-14 0
lhumerus -58.7228 -46.4212 115.494
lradius 55.59 0 0
lwrist 25.1032 0 0
lhand 37.1135 24.6418 0
lfingers 7.12502 0 0
lthumb 59.9623 38.4614 0
rclavicle 1.19272e-15 -1.53138e-14 0
rhumerus 2.98181 -23.9428 0.0369029
rradius 27.7163 0 0
rwrist -10.6603 0 0
rhand -30.8545 -43.2775 0
rfingers 7.12502 0 0
rthumb -4.14265 -793.217 0
1024
root 1.15376 15.1605 32.4554 4.87344 -3.5979 363.645
lfemur 8.40776 0.622411 5.64736
ltibia -5.22474e-14 0 0
lfoot -30.1042 -11.0255 0
ltoes -34.3201 0 0
rfemur -31.719 -15.8631 -6.01845
rtibia 50.1283 0 0
rfoot -22.5549 4.4416 0
rtoes -42.9661 0 0
lowerback -1.32905 -0.18896 0.395048
upperback -0.564402 -0.246805 -5.86972
thorax 0.137311 -0.132934 -6.31179
lowerneck -7.20029 0.987687 6.07789
upperneck 1.63205 0.642538 3.54662
head 1.74445 0.455459 0.109382
lclavicle 2.07508e-15 -1.18969e-14 0
lhumerus -58.7165 -46.4328 115.479
lradius 55.5962 0 0
lwrist 25.1142 0 0
lhand 37.1303 24.6725 0
lfingers 7.12502 0 0
lthumb 59.9767 38.477 0
rclavicle 2.07508e-15 -1.18969e-14 0
rhumerus 2.96606 -23.9397 0.0493254
rradius 27.7011 0 0
rwrist -10.6103 0 0
rhand -30.8388 -43.2386 0
rfingers 7.12502 0 0
rthumb -4.12757 -793.178 0
1025
root 1.15449 15.1602 32.4578 4.87001 -3.58699 363.633
lfemur 8.42624 0.611431 5.65766
ltibia -4.89418e-14 0 0
lfoot -30.1114 -11.0302 0
ltoes -34.3257 0 0
rfemur -31.7002 -15.88 -6.02207
rtibia 50.1396 0 0
rfoot -22.5154 4.53911 0
rtoes -42.8415 0 0
lowerback -1.35193 -0.179186 0.367686
upperback -0.559825 -0.23233 -5.88462
thorax 0.156519 -0.125261 -6.31178
lowerneck -7.19179 0.977756 6.11115
upperneck 1.63206 0.626921 3.55072
head 1.74289 0.447951 0.104483
lclavicle 3.1862e-15 -7.5384e-15 0
lhumerus -58.7096 -46.4511 115.462
lradius 55.6056 0 0
lwrist 25.1292 0 0
lhand 37.1516 24.7129 0
lfingers 7.12502 0 0
lthumb 59.9949 38.4982 0
rclavicle 3.1862e-15 -7.5384e-15 0
rhumerus 2.94295 -23.9331 0.0665354
rradius 27.6811 0 0
rwrist -10.5449 0 0
rhand -30.8173 -43.1848 0
rfingers 7.12502 0 0
rthumb -4.1068 -793.125 0
1026
root 1.15521 15.1599 32.4602 4.86498 -3.57098 363.617
lfemur 8.44876 0.595349 5.67126
ltibia -4.49243e-14 0 0
lfoot -30.1207 -11.0349 0
ltoes -34.3332 0 0
rfemur -31.6737 -15.9009 -6.02657
rtibia 50.152 0 0
rfoot -22.4656 4.65871 0
rtoes -42.6874 0 0
lowerback -1.38038 -0.166628 0.332465
upperback -0.553759 -0.213746 -5.90317
thorax 0.180865 -0.115409 -6.31109
lowerneck -7.18192 0.964801 6.15321
upperneck 1.63219 0.606563 3.55634
head 1.74111 0.438174 0.0984107
lclavicle 4.55312e-15 -2.14029e-15 0
lhumerus -58.7023 -46.4771 115.443
lradius 55.6189 0 0
lwrist 25.1486 0 0
lhand 37.1778 24.7639 0
lfingers 7.12502 0 0
lthumb 60.0173 38.5256 0
rclavicle 4.55312e-15 -2.14029e-15 0
rhumerus 2.91146 -23.9223 0.0891299
rradius 27.6557 0 0
rwrist -10.4625 0 0
rhand -30.7891 -43.1143 0
rfingers 7.12502 0 0
rthumb -4.07957 -793.055 0
1027
root 1.15594 15.1596 32.4626 4.8581 -3.54913 363.597
lfemur 8.47562 0.573403 5.68861
ltibia -4.01418e-14 0 0
lfoot -30.1323 -11.0394 0
ltoes -34.3427 0 0
rfemur -31.6384 -15.9262 -6.03199
rtibia 50.1656 0 0
rfoot -22.4044 4.80241 0
rtoes -42.5011 0 0
lowerback -1.41491 -0.150974 0.288539
upperback -0.546019 -0.190593 -5.92571
thorax 0.210876 -0.103135 -6.30961
lowerneck -7.17065 0.94848 6.20499
upperneck 1.63254 0.580917 3.56369
head 1.73913 0.42587 0.0910526
lclavicle 6.2029e-15 4.39528e-15 0
lhumerus -58.6945 -46.5119 115.422
lradius 55.6363 0 0
lwrist 25.1729 0 0
lhand 37.2094 24.8269 0
lfingers 7.12502 0 0
lthumb 60.0443 38.5601 0
rclavicle 6.2029e-15 4.39528e-15 0
rhumerus 2.87055 -23.9068 0.117706
rradius 27.6244 0 0
rwrist -10.3613 0 0
rhand -30.7535 -43.0249 0
rfingers 7.12502 0 0
rthumb -4.04512 -792.966 0
1028
root 1.15666 15.1594 32.465 4.84913 -3.52069 363.572
lfemur 8.50714 0.544829 5.71014
ltibia -3.45412e-14 0 0
lfoot -30.1464 -11.0436 0
ltoes -34.3547 0 0
rfemur -31.5934 -15.9563 -6.03837
rtibia 50.1802 0 0
rfoot -22.3309 4.97219 0
rtoes -42.28 0 0
lowerback -1.45604 -0.131911 0.235064
upperback -0.536425 -0.162415 -5.95262
thorax 0.247079 -0.0881972 -6.30722
lowerneck -7.15793 0.928449 6.2674
upperneck 1.63321 0.54944 3.57295
head 1.73697 0.410782 0.0822972
lclavicle 8.16258e-15 1.21662e-14 0
lhumerus -58.6865 -46.5567 115.397
lradius 55.6585 0 0
lwrist 25.2026 0 0
lhand 37.2469 24.9028 0
lfingers 7.12502 0 0
lthumb 60.0764 38.6022 0
rclavicle 8.16258e-15 1.21662e-14 0
rhumerus 2.81917 -23.8859 0.152861
rradius 27.5865 0 0
rwrist -10.2394 0 0
rhand -30.7095 -42.9149 0
rfingers 7.12502 0 0
rthumb -4.00266 -792.857 0
